<svg xmlns="http://www.w3.org/2000/svg" viewBox="0 0 700 330"><path fill="#FFF" d="M190.8 15.8c2.7 0 5-.2 6.7-.8 2.8-.5 5-.8 6.6-.8 2.1 0 3.4-.2 4-.8.3-.4.7-.8 1-1.3.3-.5.8-.9 1.4-1.3.8-.7 1.7-1.6 2.6-2.9.2-.4.5-.9 1-1.6.4-.7.9-1 1.5-1 .3 0 .4.3.4 1 0 .4-.3 1.5-1 3.2-.6 1.7-1 2.7-1.2 3.1-.3.5-.5 1.1-.6 1.6-.2.5-.3 1-.4 1.4-.4 1.2-.7 2.4-.9 3.5-.2 1.1-.3 2.4-.6 3.5-.2.9-.9 2.6-1.6 5-.7 2.4-1.4 3.6-2.2 3.6-.9 0-1.3-.6-1.3-1.6.1-.6.1-1.6.2-3-.2-1.1-.8-1.9-1.7-2.4-.9-.5-1.7-1-2.4-1.5-.5-.1-2.1-.9-5-2.3-1.4 0-2.8.2-4.2.8-1.4.5-2.8.8-4.2.7-1.4 0-2 .6-2 1.9 0 3.2.1 6.1.3 8.7.2 2.6.1 5.6-.4 8.9-.1.4-.2 1.4-.3 2.9-.1 1.5-.1 2.5-.1 2.9 0 1.1 0 2.2.1 3.6.1 1.3.4 2.2 1 2.6 1.5.1 2.7-.1 3.6-.6.9-.4 2.1-.9 3.5-1.4 1.7-.5 3.5-.7 5.4-.8 1.8-.1 3.7-.1 5.5 0 1.3 0 2.2.4 2.8 1.1.6.7 1.5 1.2 2.6 1.7.7.5 1.6.9 2.8 1.2 1.1.4 1.7 1.2 1.7 2.6 0 .4-.1.9-.4 1.6-.3.7-.4 1.3-.4 1.8-.4 1.6-.7 2.7-.9 3.4-.1.4-.6 1.3-1.5 2.6-.9 1.6-1.6 2.4-1.9 2.4-.5 0-.7-.6-.8-1.8-.1-1.2-.1-2.1-.3-2.6-.2-.5-1-1.6-2.4-3.1-2.1-.6-3.6-1.1-4.7-1.6-.5-.2-1.3-.5-2.1-1-.9-.5-1.6-.8-2.2-.8-1.5-.1-2.6-.1-3.3 0-1.1.2-2.1.5-3.1.9-1 .3-2.1.6-3.1.9-.7 1-1.1 1.8-1.2 2.2 0 .5-.1 1.4-.1 2.9-.3 1.1-.3 2.3-.2 3.3.1 1.1.2 2.2.2 3.4 0 .8-.1 1.6-.4 2.3-.2.8-.3 1.6-.2 2.3 0 1.1 0 2.1.2 3.1.1 1 .2 1.9.2 2.7-.3 2.1-.5 4.2-.8 6.2-.3 2-.4 4-.5 6v.9c0 1.6.1 2.7.3 3.4.2.7.6 1.4 1.2 2.3 1 1.6 1.7 2.3 1.9 2.1.2-.2 1 0 2.4.6.9.6 1.7.9 2.6 1 1.3.4 2.2.7 2.6 1 .2.3.5.7.8 1.1.3.4.6.6.9.7 1.1 1 1.7 1.6 1.7 1.7 0 .7-.5 1-1.5.9-1.4-.3-2.6-.7-3.6-1.2s-2.4-.8-4-.8c-2.3.1-3.6.1-3.8.1-1.6.1-2.8.1-3.6.1-3.5-.3-5.9-.2-7.4.4-.5.2-1 .5-1.5.8-.5.3-1 .5-1.3.6-.9.6-1.4.9-1.5.9-.1 0-.6-.1-1.6-.2-.5 0-1 0-1.7.2s-1.2.3-1.6.2c-.8-.1-1.3-.1-2.1-.2-.9.1-1.5.2-1.7.2-.9-.1-1.4-.5-1.4-1.3s.9-1.1 2.6-1c.5 0 1.4-.1 2.8-.3 1.4-.4 2.1-.6 2.2-.8.1-.1.7-.7 1.7-1.8.4-.3 1-1 1.9-2 .9-1 1.3-2 1.5-2.8.1-.7.3-1.8.6-3.1.2-1.3.4-2.5.4-3.5 0-.8.1-1.8.3-3.2.2-1.4.4-2.5.7-3.6 0-.8.1-1.9.3-3.3.2-1.4.4-2.5.5-3.4 0-1.6 0-2.8-.1-3.6-.1-.8.1-2 .5-3.4.2-1 .5-2 .7-2.9.2-.9.5-2 .8-3.3.5-3.8.3-8.4-.4-14-.2-1.2-.3-2.3-.4-3.4-.1-1.1-.2-2.3-.4-3.4-.1-.8-.4-1.8-.8-2.8-.4-1-.6-2-.8-3-.7-1.9-1.1-4-1.4-6.1-.3-2.1-.6-4.3-.9-6.5-.1-.4-.5-1.2-1.1-2.5-.6-1.3-1-2.1-1.2-2.5-1.5-1.6-2.9-2.3-4.3-2.2-1.4.1-2.9.3-4.7.5-2 .6-3.2 1-3.7 1.3-1.5.9-2.5 1.5-2.9 1.9-1.4 1.1-2.4 1.7-3.1 1.7-.1 0-.2-.2-.2-.6 0-1.5.3-2.5.9-3 .6-.5 1.3-1.2 2.3-1.9 1-.7 1.7-1.4 2-1.9.3-.5 1.1-1.1 2.5-1.9 1.1-.6 2.6-1.2 4.5-1.5 1.9-.4 3.5-.7 4.9-1.1.5 0 1.1.1 1.8.2.6.1 1.2.2 1.6.2 1.5 0 3 0 4.3-.1 1.4-.1 2.9-.1 4.7-.1 1.4.2 2.8.3 4.2.4 1.3.2 2.8.3 4.4.3zM228.3 59.9c0-1.5-.1-3-.3-4.6-.2-1.6-.3-3.2-.3-4.8-.1-2.1-.5-3.8-1.2-4.9-.7-1.1-2.1-1.7-4.1-1.7-.7-.4-1-.9-1-1.4 0-.5.6-.8 1.9-.8 1-.1 2.1-.4 3.3-.7 1.2-.3 2.3-.5 3.5-.6 1.7-.1 3.5-.2 5.2-.3 1.7-.1 3.5-.3 5.2-.5.8 0 1.6.1 2.4.2.8.1 1.7.1 2.8.2 1.3-.1 2.9 0 5 .3 1.7.8 3 1.5 3.8 1.9.7.4 1.3.8 1.9 1.1.9.3 1.5.8 1.6 1.7 0 .8-.2 1.5-.5 1.9-.3.5-.5 1-.6 1.5-.7 3-1.2 5.4-1.3 7 0 1.2-.1 2.4-.3 3.5-.3 1.3-1.5 2.8-3.5 4.7-2 1.9-3.5 3-4.6 3.4.2 1.2.5 2.4.7 3.5.2 1.1.5 2.2.8 3.3.7 2.6 1.8 5.1 3.4 7.5.7 1.3 1.2 2.5 1.7 3.5.2.9.7 2.3 1.4 4.3s1.4 3.2 1.8 3.4c.7.6 1.1 1 1.3 1.1.2.2.8.7 1.3 1.5.6.8 1.7 1.5 3.4 1.6.6 0 1.1-.3 1.5-.9s.9-1 1.5-1.1c.6 0 1 .6 1.2 1.7 0 .3-.6.8-1.7 1.6-.3.2-.6.6-.9 1.1-.3.5-.6.7-.7.7-.7.4-1.6.6-2.6.7-.9 0-1.8.1-2.6.3-.8.2-1.6.3-2.4.1-.3 0-.8-.2-1.7-.7-.9-.4-1.5-.7-1.7-.9-1-.4-1.9-1.4-2.8-2.8-.3-.6-.6-1.2-.8-1.9-.2-.7-.5-1.4-.8-2.1-.5-1.4-1.1-2.8-1.7-4.2-1.4-2.5-2.3-5.4-2.7-8.7-.2-1.3-.4-2.6-.5-4-.2-1.4-.3-2.8-.4-4.1 0-1.4-.4-2-1.2-1.9-.6 0-1.6.1-3.1.3-1.4.2-2.3.6-2.5 1 .1 2.5.1 4.7-.1 6.7-.2 3.5-.3 6.2-.2 7.9.1 2.9 1.7 4.3 5 3.9.9 0 1.6.7 1.9 2 0 .6-.4.8-1.2.8-.7.1-1.3.1-1.8 0s-1.1-.2-1.8-.2c-2.5-.1-4.5-.2-5.5 0-.9.1-1.9.5-2.8.9-.9.4-1.8.8-2.6 1-3.2.8-5.9 1.2-7.9 1.1-1.9.2-2.8-.5-2.8-1.9 0-.4.3-.6.9-.7.6 0 1-.1 1.2-.3.5 0 1.4-.2 2.6-.7.3-.1.9-.4 1.7-1.1.8-.7 1.3-1.2 1.6-1.8.3-.8.6-1.5.9-2.3.2-.7.5-1.5.9-2.3.2-.5.4-1.4.7-2.5.2-1.2.4-2.1.6-2.9 0-.8.1-1.8.4-2.9.2-1.1.4-2 .6-2.9 0-.8 0-1.8.1-3.1s.1-2.3.1-3.1c-.6-1.3-.6-3.6-.6-6.6zm13.6-15.6c-1.2.1-1.9.2-3.1.3-.4 1.2-.7 2-.8 2.4-.2.3-.4.8-.8 1.5-.3.4-.6 1.1-.9 2.1-.3 1-.5 1.8-.3 2.2.3 2.2.4 3.3.7 5.5v3.5c0 .8-.1 1.4-.2 1.7-.1.3-.1.8 0 1.5.7.6 1.3.7 1.9.3.6-.4 1.2-.6 1.9-.8 1.3 0 2.3-.6 3-2.1.7-1.4 1.2-2.8 1.6-4.1.1-.9.3-1.8.5-2.9.2-1.1.4-2.1.8-3.1 0-.4.4-1.3 1.2-2.6.8-1.3 1.2-2.1 1.2-2.2 0-.3-.3-.8-1-1.5s-1.2-1.1-1.4-1.3c-1.6-.4-2.9-.6-4.3-.4zM283.1 99.8c-.3 0-.9-.4-1.8-1.2-1-.8-1.6-1.3-1.8-1.6-.8-.7-2.1-1.5-3.8-2.3-1.5-.7-2.8-1.4-4-2.2-1.2-.7-2.2-1.8-3.1-3.2-1-1.6-1.7-2.9-2.2-4.1-.5-1.2-.7-3.2-.7-6.2 0-2.1 0-4.3-.1-6.5 0-2.3.1-4.5.5-6.5.1-1 .2-2 .2-3s.2-2 .5-3c.3-.8.7-1.6 1-2.3.3-.7.6-1.5 1-2.3.7-1.3 1.5-2.6 2.3-3.9.8-1.4 1.7-2.5 2.7-3.5.5-.5 1-1 1.5-1.6.5-.6 1.1-1.1 1.6-1.5.6-.6 1.2-1 1.7-1.4.5-.3 1.1-.8 1.8-1.4 1.3-1 2.4-1.8 3.5-2.6l1.7-1.7c.7-.7 1.4-1 2.1-1 .7 0 1.4.6 2.3 1.9.9 1.3 1.5 2.1 2 2.5.7.9 1.3 1.7 2 2.5.6.8 1.3 1.6 2 2.4 1 1.3 2.4 2.9 4 4.8 1.7 1.9 2.5 4 2.5 6.4v7.4c0 1.2-.1 2.3-.4 3.3-.2 1-.4 1.9-.4 2.9-.3 1.8-.8 3.7-1.4 5.7-.7 2.5-1.3 4.2-1.7 5.2-.6 1.3-1 2.1-1.2 2.5-.2.4-.6 1-1.3 1.9l-1.7 1.7-1.6 1.6c-.7.5-1.3 1.1-1.7 1.7-.5.6-.9 1.2-1.4 1.8-.6.7-1 1.4-1.4 2-.4.6-.8 1.3-1.3 2-.5.6-1.1 1.2-1.9 1.8-.8.7-1.4 1.1-2 1zm-8.5-42.1V62.9c-.2.9-.3 1.8-.2 2.7.1 1 .1 1.9.1 2.7 0 1.4-.1 3.3-.1 5.6-.1 2.3 0 4 .3 5.3.1.9.1 1.7.2 2.6.1.8.2 1.7.5 2.5.1 1.3.7 2.3 1.9 3.2.5.4 1.5 1.2 2.7 2.4l1.3 1.3c.6.6 1.1.9 1.5.9.5 0 1.2-.7 2.3-2.2.2-.4.8-1 1.7-1.8.5-.5 1-1.3 1.6-2.3.6-1 1.2-1.7 1.8-2.1.8-.8 1.3-1.5 1.5-2.2.2-.7.5-1.7 1-2.9.3-1.3.6-2.4.6-3.4.1-1 .1-2.3.1-4.1 0-.4 0-1 .1-1.9.1-.8.1-1.5.1-2.1 0-.6 0-1.2-.1-1.8-.1-.6-.1-1.4-.1-2.2 0-1.8-.1-3-.4-3.6-.3-.5-.7-1.4-1.3-2.5-.6-.9-1.1-1.7-1.7-2.4-.5-.7-1-1.5-1.3-2.5-1-2.3-2.8-3.4-5.5-3.4-1.5 0-2.6.4-3.2 1.2-.6.8-1.3 1.6-2 2.3-.7.7-1.5 1.5-2.2 2.5-.8.8-1.2 1.9-1.2 3zM355.7 35.6c-.3 1.1-1.3 2.5-3 4.1-1.7 1.6-2.8 2.7-3.5 3.3-.5.3-1.1.8-2 1.7-.9.8-1.4 1.5-1.5 1.9-.8 2.7-1.2 6-1.2 10 0 2.1.1 4.2.3 6.4.2 2.2.3 4.3.3 6.4 0 2.1.1 4.3.2 6.6s.2 4.4.3 6.3c0 1.2.3 3.1.9 5.5.1.8.4 1.6.8 2.4.4.8.8 1.5 1.1 2.2.2.8.4 1.7.5 2.5.1.8.4 1.7.7 2.5.1.5.6 1.2 1.3 2.2.7 1 1.1 1.6 1.1 1.9 0 1.9-1 2.8-2.9 2.8-.9 0-1.9-.5-2.9-1.5s-1.7-1.9-2-2.8c-.6-.8-1.2-1.7-2.1-2.6-.8-.9-1.5-1.8-2.1-2.6-.7-.9-1.5-1.7-2.4-2.4-.9-.7-1.6-1.5-2.1-2.3-.8-.9-1.6-1.7-2.3-2.6-.7-.8-1.4-1.7-2.1-2.6-.5-.4-1.2-1.3-2.1-2.6-.9-1.3-1.5-2.4-1.8-3-.3-.5-.9-1.6-1.6-3.2-.7-1.5-1.3-2.6-1.6-3.2-.6-.7-1.3-1.6-2-2.7-.8-1.1-1.4-2-2-2.7-.3 0-.7-.4-1.4-1.1-.7-.7-1-1-1-.8-.3 2.9-.4 4.5-.4 4.6 0 .8.1 1.6.2 2.4s.2 1.6.3 2.5v5c0 1.9 0 3.6-.1 5.4 0 1.7.1 3.3.4 4.7.3 3 1.4 5.2 3.3 6.6.5.4 1.4 1.1 2.8 2.1s2.1 1.8 2.1 2.6c0 .4-.6.6-1.7.6s-2-.2-2.9-.5c-.9-.3-1.8-.4-2.8-.5-.9 0-2.1.1-3.5.4-1.1 0-2.3.1-3.5.3-.5.1-1.4.4-2.8.8s-2.4.5-3 .4c-1.1-.3-1.2-.9-.1-1.7.3-.4 1-.8 1.9-1.2.9-.4 1.6-.8 1.9-1.2.3-.4.7-1.2 1-2.5.3-1.3.6-2.4.7-3.4.1-2.4.4-4.6.9-6.8s.7-4.5.7-7c0-1.4-.1-2.8-.3-4.3-.2-1.5-.3-3-.3-4.5 0-1.3 0-2.6-.1-4 0-1.4-.1-2.9-.1-4.4 0-.8-.1-1.7-.2-2.5s-.2-1.7-.2-2.5v-2.8c0-1-.1-1.9-.2-2.7-.2-1.7-.6-3-1.3-3.8-.5-.3-1.1-.6-1.9-.8-.8-.2-1.2-.7-1.2-1.5 0-.9.7-1.3 2.1-1.4 1.4-.1 2.4-.1 3.1-.1 2.5 0 4.5.7 5.9 2 .9.8 1.6 1.6 1.9 2.2.3.6.9 1.5 1.6 2.7.3 1 .8 1.9 1.4 2.6.6.8 1.1 1.7 1.6 2.6.3 1 .7 2 1.2 2.9.5 1 .9 1.9 1.4 2.8.9 2 1.9 3.8 2.8 5.6.9 1.8 2.1 3.4 3.4 5 1.1 1.4 2.2 3.1 3.3 4.9 1.2 1.8 2.3 3.4 3.5 4.6 0-1.1-.3-3-.9-5.5-.2-1.5-.3-3.7-.3-6.3 0-2.1-.1-4.3-.2-6.5-.2-2.2-.4-4.1-.8-5.7-.3-1-.6-1.8-.8-2.5-.2-.7-.4-1.6-.6-2.6-.4-.8-.8-1.5-1.2-2.1-.4-.6-.8-1.3-1.1-2.1-.9-1.4-1.9-2.4-2.9-2.9-.6-.2-1.4-.4-2.4-.7-1-.3-1.6-.8-1.6-1.5 0-1.2 1-1.5 3.1-.9s3.5.9 4.2.9h1.7c.7 0 2.3-.4 4.8-1.3s4.3-1.6 5.2-2c2.5-1 4.5-2.5 6.1-4.5.3-.4.9-.8 1.6-1 .8-.3 1.2 0 1.4 1zM383.6 81.4v3.1c0 1.4.1 2.4.2 3 .1.4.1 1.4.1 2.9 0 .8.1 1.8.4 2.9 0 .9.3 1.5.8 2s1.1 1.2 1.3 1.9c.3 1 .6 1.8 1 1.9.7.4 1.5.6 2.4.6.6 0 1.4-.3 2.5-1s1.9-1 2.5-1c.9 0 1.3.4 1.3 1.3 0 .4-.3.9-1 1.6-.6.6-1.1 1.1-1.3 1.4-.7.8-2.4 1.3-4.9 1.3-1.3 0-2.6-.1-3.9-.4-1.3-.3-2.7-.5-4.1-.4-.3 0-.6 0-.7.1-.1.1-.3.1-.5.1-1.7 0-2.9-.1-3.7-.3-.8-.2-2.5-.2-5.2 0-1.5 0-2.3-.1-2.4-.4.3-1.2.8-1.9 1.6-2 .8-.1 1.7-.3 2.7-.8.7-.2 1.2-.9 1.3-2.1.2-1.3.3-2.4.6-3.4.2-.8.4-2 .5-3.5.1-1.5.2-2.6.3-3.5 0-1.3 0-2.6.1-3.8.1-1.3.2-2.5.4-3.7 0-1.3 0-2.5-.1-3.7 0-1.2 0-2.4.2-3.7.1-1.1.2-2.4.1-3.7-.1-1.3-.1-2.6-.1-3.9 0-.6 0-1.2-.1-1.8-.1-.6-.1-1.3-.1-2 0-2 0-3.2-.1-3.8-.1-.8-.2-2-.2-3.7v-4.1c-.6-.4-1.2-.6-1.8-.5-.6.1-1.2.1-1.8.1-1.2 0-2.1.1-2.6.4-1.5.7-2.7 1.9-3.7 3.4-.5.8-1 1.7-1.5 2.5-.4.9-.8 1.6-1.1 2.4-.8 1.4-1.3 2.2-1.4 2.3-.2.3-.5.7-.8 1.2-.3.6-.6.9-.8.9-.8 0-1.3-.6-1.4-1.7.7-1.6 1.2-3 1.7-4 .6-1.1 1.1-2.7 1.4-4.8 0-.9.1-1.8.3-2.8.2-1 .3-2 .3-2.9 0-.9 0-2-.1-3.3 0-1.3.3-2 .9-2 .3.1.8.4 1.4.9.6.5 1.2.8 1.9 1 1.3.6 3.3.8 6.2.8.6 0 1.1-.1 1.5-.2.4-.1.8-.2 1.3-.2 1.5 0 2.5-.1 3.1-.2 1.4-.4 2.3-.6 2.6-.6.9 0 1.9-.2 2.8-.5.9 0 1.9 0 3 .1 1 .1 2.1-.2 2.9-.5 1.3-.4 2.5-.7 3.1-1.1.6-.4 1.1-.6 1.7-.6.7 0 1.1.6 1.2 1.8.1 1.2.3 2.3.4 3.2.1 1.5.4 3.6.8 6.1.1.6.3 1.5.5 2.9.1.7.2 1.8.2 3.1-.1.8-.2 2-.3 3.5-.1 1.5-.4 2.3-.8 2.3-.7 0-1.1-.7-1.1-2-.1-1.3-.1-2.4-.1-3.2 0-1-.2-1.8-.7-2.5-.5-1.1-.8-1.8-1-2.1-.7-.8-1.8-1.9-3.1-3.2-1.3-1.3-2.6-2-3.9-2-.9 0-1.6.1-2 .4-.4.3-.6 1.3-.7 3-.1 1.7-.2 2.7-.2 3.1-.1.9-.2 1.7-.3 2.4-.1.7-.1 1.4-.1 2.1 0 2.2 0 3.7-.1 4.6-.1 1.5-.2 3.1-.1 4.8.1 1.7.1 3.2.1 4.7 0 1.6 0 3.3-.1 4.9.4 1.7.4 3.2.4 4.6zM433.6 50.1c-1.7.6-3.5.8-5.3.7-1.8-.1-3.5-.2-5.1-.1-.5 0-.9 0-1.2-.2-.3-.1-.7-.2-1-.2-.4 0-.9.2-1.4.6-.6.4-.9.5-1 .6-.3.3-.7 1.2-1 2.9-.8 2.7-1.2 4.9-1.2 6.7 0 3.1.7 4.6 2.1 4.5.2 0 1.1-.5 2.6-1.5s2.7-1.5 3.6-1.5c2.3 0 4.3.7 5.9 2.2.5.4 1.1 1 2 1.9.9.9 1.3 1.7 1.3 2.6 0 1.3-.2 2.3-.5 3.2-.4.9-.6 1.8-.8 2.6-.6 2.2-1.4 3.3-2.4 3.3-1.1 0-1.5-.3-1.3-1 .4-.6.9-.9 1.4-.9.6 0 .9-.7.8-1.9 0-2.2-1.3-3.3-3.8-3.3-.7 0-1.5.2-2.4.5-1.2 0-2.9.2-5.2.5-.6 0-1.1.1-1.5.1-.4.1-.8.1-1.1.1-.3.6-.7 1.3-1.1 2.2-.4.9-.6 1.7-.6 2.4 0 1 .1 2.1.4 3.2.2 1.2.4 2.1.4 2.6-.1 1.1-.1 2.8-.1 5.2 0 .7.4 1.1 1.1 1.2.7.1 1.3.2 1.6.1 1.3 0 2.6-.2 3.9-.6 1.3-.4 2.5-.6 3.4-.6 1.1-.1 2.2 0 3.4.5 1.2.5 2.3.7 3.4.7 1.9-.1 3.9-1.3 5.8-3.7.5-.6.6-2 .4-4.4-.2-2.3.2-3.5 1.1-3.6.5 0 .8.6 1.1 1.9.2 1.3.4 2.2.4 2.6 0 2.5-.2 4.4-.8 5.6-.5 1.3-1.2 2.5-2.2 3.8-.9 1-1.7 2.3-2.5 3.8s-1.8 2.3-3.2 2.4c-1 0-2 0-3-.2s-2-.2-3-.2c-1.2 0-2.3.1-3.3.1s-2.1.1-3.1.1c-.6 0-1.2 0-1.7.1h-1.6c-2.8.1-5.5-.3-8-1l-1.8-.6-1.8-.6c-.5 0-1 .1-1.5.1-.5.1-1 .1-1.5.1-.7 0-1-.3-1-.8 0-1.1.8-1.7 2.4-1.8 1.6-.1 2.6-.6 3-1.4.7-2.2 1-5.1 1-8.6 0-1.1-.2-2.3-.5-3.5-.5-1.9-.7-3.3-.7-4.2 0-.8.2-1.8.5-2.9.3-1.1.6-2.3.7-3.4 0-1 .1-2.1.2-3.5.2-1.3.2-2.5.2-3.6 0-3.5-.1-6.1-.4-7.6-.2-1.7-.4-3.2-.5-4.4-.1-1.3-.9-2.1-2.3-2.5-.7-.2-1.4-.3-2.2-.3-.8.1-1.1-.3-1-1.1 0-.2.4-.4 1.1-.9.7-.4 1.3-.6 1.8-.6.7 0 1.3.2 1.8.5.5.4 1.2.5 2.2.5h2c1.1 0 2.4-.2 3.8-.6 1.4-.4 2.7-.9 3.6-1.2 1.5-.5 3-.6 3.7-.9.8-.3 2.1-.6 3.8-.9 1.1 0 2.5-.2 4-.5s2.5-.9 3.1-1.7c.3-.7.9-1.7 1.8-3.1.9-1.3 1.8-2 2.7-2 .5 0 .8.2.8.6 0 .2-.1.8-.4 1.9-.3 1.1-.4 1.7-.4 1.8-.8 2-1.2 3.2-1.4 3.6-.3.6-.5 1.2-.6 2-.2.8-.3 1.3-.4 1.8-.5 2.1-1 3.1-1.5 3.7zM494.5 34.1c-.3 1.1-1.3 2.4-3 4s-2.8 2.7-3.5 3.2c-.5.3-1.1.8-2 1.6-.9.8-1.3 1.5-1.5 1.8-.8 2.6-1.2 5.8-1.1 9.6 0 2 .1 4.1.3 6.1.2 2.1.3 4.1.3 6.1s.1 4.1.2 6.3.3 4.2.4 6.1c0 1.2.3 2.9.9 5.2.1.8.4 1.5.8 2.2.4.7.8 1.4 1.1 2.1.2.8.4 1.6.5 2.4.1.8.4 1.6.7 2.4.1.4.6 1.1 1.3 2 .7.9 1.1 1.5 1.1 1.7 0 1.8-.9 2.7-2.9 2.8-.9.1-1.9-.3-2.9-1.2-1-.9-1.7-1.7-2.1-2.5-.6-.8-1.3-1.6-2.1-2.4-.8-.8-1.5-1.6-2.1-2.4-.7-.8-1.5-1.5-2.4-2.1-.9-.6-1.6-1.3-2.1-2.1-.8-.8-1.6-1.6-2.3-2.4l-2.1-2.4c-.5-.4-1.2-1.2-2.1-2.4-.9-1.3-1.5-2.3-1.8-2.8-.3-.5-.9-1.5-1.6-3-.8-1.5-1.3-2.5-1.6-3-.6-.7-1.3-1.5-2.1-2.5s-1.4-1.8-2-2.5c-.3 0-.7-.3-1.4-1s-1-.9-1-.8c-.2 2.9-.3 4.4-.3 4.5 0 .8.1 1.6.2 2.3.1.7.2 1.5.3 2.4v10.2c0 1.7.1 3.2.5 4.6.4 2.9 1.5 5 3.4 6.2.5.4 1.4 1 2.8 1.9 1.4.9 2.1 1.7 2.1 2.4 0 .4-.6.6-1.7.7-1.1.1-2 0-2.9-.3-.9-.2-1.8-.3-2.8-.3-.9 0-2.1.3-3.5.6-1.1.1-2.3.2-3.5.5-.5.2-1.4.5-2.8 1s-2.4.7-3 .6c-1.1-.3-1.2-.8-.1-1.7.3-.4 1-.9 1.9-1.3.9-.5 1.6-.9 1.9-1.3.3-.4.7-1.2 1-2.5.3-1.2.6-2.4.7-3.4.1-2.3.4-4.6.8-6.7.4-2.2.7-4.5.6-6.9 0-1.4-.1-2.7-.3-4.2-.2-1.4-.3-2.9-.3-4.4 0-1.3 0-2.6-.1-4s-.1-2.8-.1-4.3c0-.8-.1-1.6-.2-2.4-.1-.8-.2-1.6-.2-2.4v-2.7c0-1-.1-1.8-.2-2.6-.2-1.7-.7-2.9-1.4-3.7-.5-.3-1.1-.5-1.9-.7-.8-.2-1.2-.7-1.2-1.5 0-.9.7-1.3 2.1-1.4 1.4-.1 2.4-.2 3.1-.2 2.5 0 4.5.5 5.9 1.8.9.8 1.6 1.5 1.9 2.1.3.6.9 1.5 1.6 2.6.3.9.8 1.8 1.4 2.5.6.7 1.1 1.6 1.6 2.5.3.9.8 1.9 1.2 2.8.5.9.9 1.8 1.4 2.7.9 1.9 1.9 3.6 2.8 5.3.9 1.7 2.1 3.2 3.5 4.7 1.1 1.4 2.2 2.9 3.4 4.6 1.2 1.7 2.3 3.1 3.5 4.3 0-1.1-.3-2.8-.9-5.2-.2-1.5-.3-3.5-.4-6.1 0-2-.1-4.1-.3-6.3-.2-2.1-.5-4-.9-5.4-.3-.9-.6-1.7-.8-2.4-.2-.7-.4-1.5-.6-2.5-.4-.8-.8-1.4-1.2-2-.4-.5-.8-1.2-1.1-2-.9-1.3-1.9-2.2-2.9-2.8-.6-.1-1.4-.3-2.4-.6s-1.6-.7-1.6-1.4c0-1.2 1-1.5 3.1-1 2.1.6 3.5.8 4.2.8h1.7c.7 0 2.3-.5 4.8-1.4 2.5-.9 4.3-1.6 5.2-2 2.4-1 4.5-2.5 6-4.4.3-.4.8-.7 1.5-1 .9-.5 1.4-.2 1.6.7zM521.1 36.7c2.2.1 4.7.9 7.5 2.2 1.5.7 2.6 1.3 3.3 1.8 2.3 1.7 4 3.3 5.2 4.8 1.2 1.4 2.5 3.5 4.1 6.1.6 1.2 1 2.5 1.3 3.9.3 1.5.7 2.8 1.2 4.1.3 1 .9 2.3 1.6 3.7.8 1.5 1.1 2.7 1.1 3.6 0 1-.8 2.7-2.4 5-1.6 2.4-2.7 4.2-3.4 5.4-.6.8-1.2 1.6-1.7 2.5-.6.9-1.1 1.7-1.5 2.6-1 1.6-2 2.8-3 3.4-1 .6-2.1 1.4-3.5 2.3-.9.5-1.9.8-2.9 1-1 .2-1.9.7-2.5 1.6-.4.4-.7.8-.9 1.2-.2.4-.5.8-.8 1.2-.9 1-1.9 1.4-2.8 1.3-1-.2-1.9-.5-2.9-.8-1.1-.2-2.2-.3-3.1-.4-.9-.1-2.1-.1-3.5 0-1.5.1-3 .2-4.7.3-1.6.1-3.1.7-4.3 1.7-.3.4-.8 1-1.3 1.9-.5.8-.9 1.3-1.3 1.3-.2 0-.3-.2-.3-.8 0-.1.1-.5.4-1.1.3-.6.4-1.1.4-1.3.5-.8.9-1.4 1.3-1.7.6-.4 1.3-.7 2-.9.8-.2 1.5-.5 2.3-1 .3-.1.9-.5 1.8-1.2s1.4-1.2 1.5-1.6c.3-1.1.5-2.3.6-3.5.1-1.3.1-2.5.1-3.6 0-2-.1-3.9-.1-5.9-.1-1.9-.1-3.9-.1-5.8 0-2.4-.5-4.9-1.3-7.4-.5-1.3-.7-2.5-.7-3.7.1-1.8.2-2.6.3-4.4 0-.8-.1-1.6-.3-2.4-.2-.8-.3-1.7-.3-2.6-.1-.4-.6-1.3-1.3-2.8-.7-1.5-1.2-2.3-1.6-2.4-.3 0-.9 0-1.6-.2-.8-.1-1.2-.3-1.5-.4-1.4-.5-2.7-1.9-3.8-4.1-.5-.9-.9-1.9-1.2-3 0-.2 0-.9-.1-2.1-.1-1.1.1-1.7.4-1.7.3 0 .7.6 1.2 1.7s.8 1.9.9 2.3c.2.4.4.7.5 1.1.1.3.3.7.4 1.1.7 1.6 1.7 2.2 3.1 1.9 1-.3 2-.4 3-.4s2.1-.3 3.2-.9c2.1-.9 4-1.6 5.9-2.1 2-.7 4-.9 6.1-.8zm-4.4 6.4c-.1 2 0 4 .1 5.9.1 2 .2 3.9.2 5.9 0 1.3.1 2.6.1 4 .1 1.4.1 2.7.1 3.8 0 2.8 0 5.5-.1 8-.1 2.6-.1 5.4.1 8.4 0 .8.1 1.6.3 2.5.2.9.3 1.8.5 2.5 1.4.2 2.5.3 3.3.2 1.7-.1 3.1-.2 4.1-.2 1 0 2.3-1.1 3.8-3.3.5-.8 1-1.7 1.7-2.5s1.2-1.7 1.7-2.6c1-2 1.8-4.1 2.2-6.3.3-1.1.7-2.2 1.1-3.5.4-1.3.6-2.4.6-3.6 0-1.2-.2-2.6-.5-4.3-.3-1.7-.6-2.9-.8-3.8-.3-.7-.9-1.6-1.7-2.6-.8-1-1.5-1.9-1.9-2.7-1.1-1.5-2.6-3-4.7-4.6-2.1-1.6-4-2.3-5.7-2.3-2.3.2-3.8.6-4.5 1.1zM322.5 164.9v-2.2c0-.8.1-1.5.3-2.1.1-.4.1-1.1.1-2 0-.9-.1-1.7-.1-2.3 0-.7-.1-1.4-.2-2.2-.1-.8-.2-1.5-.2-2.2 0-.3 0-.6-.1-1 0-.4-.1-.8-.1-1.1-.1-.3-.1-.7-.1-1.1 0-.4.1-.8.1-1.2-.2-.8-.2-1.5-.2-2.2 0-.7.1-1.5.1-2.2-.1-.6-.2-.9-.4-1-.2-.1-.4-.4-.6-.8-.6-.5-1.3-1-2.2-1.2-.3-.1-.7-.2-1.1-.3-.5-.1-.7-.3-.7-.8 0-.2.3-.3.8-.2.5.1.9.2 1.2.2.7.2 1.9.5 3.5 1 .7.2 1.6.7 2.6 1.3 1 .6 2 1.1 3 1.4 1.3.3 1.9.5 3.2.8.2.1.6.2 1.1.4.5.2.8.4.8.6 0 .2-.4.2-1.1 0-.7-.2-1.2-.4-1.4-.4h-1.9c-.8.1-1.1.8-1.1 2v2.8c0 .8.1 1.6.2 2.4.1.8.2 1.7.2 2.6v5.2c0 .9.1 1.8.2 2.5l.3 2.4c0 .5 0 .9.1 1.3s.1.8.1 1.1v3.8c0 1.7.4 3 1.4 4.2.6.7 1.2 1.2 1.9 1.7.7.4 1.2 1 1.7 1.6.2.6-.7.3-2.8-.9-2.1-1.2-3.3-1.8-3.6-2-.2-.1-.8-.5-1.7-1.1-.9-.7-1.8-1.2-2.7-1.7-1.2-.5-2.6-.9-4.3-1.3-.7 0-1-.1-1-.3.1-.3.4-.4 1-.3.7.2 1.1.3 1.4.2 1.2-.3 1.9-.7 2-1.2.2-1.2.3-2.6.3-4.2zM370.6 150c-.2.6-.9 1.3-2 2s-1.9 1.2-2.4 1.4c-.3.1-.8.3-1.3.7-.6.4-.9.7-1 .9-.6 1.5-.8 3.4-.9 5.7 0 1.3 0 2.5.1 3.9.1 1.3.1 2.6.1 3.9 0 1.3 0 2.6.1 3.9.1 1.4.1 2.6.2 3.8 0 .7.2 1.9.6 3.4.1.5.3 1 .5 1.6.3.5.5 1.1.7 1.6.1.5.2 1.1.3 1.6.1.5.2 1.1.5 1.6.1.3.4.8.9 1.6.5.7.7 1.2.7 1.3 0 1.1-.7 1.5-2 1.1-.6-.2-1.3-.7-1.9-1.5-.6-.8-1.1-1.5-1.3-2.1-.4-.6-.8-1.3-1.4-2-.5-.7-1-1.4-1.4-2-.5-.7-1-1.3-1.6-1.9-.6-.6-1-1.2-1.4-1.8-.5-.7-1-1.3-1.5-2-.5-.6-.9-1.3-1.4-1.9-.3-.3-.8-1-1.4-2-.6-1-1-1.7-1.2-2.1-.2-.4-.6-1.1-1.1-2.2-.5-1.1-.8-1.8-1.1-2.2-.4-.5-.8-1.2-1.3-2s-.9-1.4-1.3-1.9c-.2-.1-.5-.3-.9-.9-.4-.5-.7-.8-.7-.7-.2 1.6-.3 2.5-.3 2.6 0 .5 0 .9.1 1.4.1.5.1 1 .2 1.5V169.2c0 1.1 0 2.1-.1 3.1 0 1 .1 1.9.3 2.8.2 1.8.9 3.3 2.2 4.5.3.3.9 1 1.8 1.8.9.9 1.4 1.5 1.4 1.9 0 .2-.4.2-1.1 0-.7-.2-1.3-.5-1.9-.9-.6-.4-1.2-.7-1.9-.9-.6-.2-1.4-.4-2.3-.6-.8-.3-1.5-.5-2.3-.6-.3 0-.9-.1-1.8-.2s-1.6-.3-1.9-.5c-.7-.5-.8-.8-.1-1 .2-.2.6-.2 1.2-.3.6 0 1-.1 1.3-.3.2-.1.4-.5.7-1.2.2-.6.4-1.2.5-1.8.1-1.3.3-2.5.6-3.7.3-1.1.5-2.4.5-3.9 0-.8-.1-1.6-.2-2.5-.1-.9-.2-1.8-.2-2.6V160v-2.5c0-.5 0-1-.1-1.5s-.1-1-.1-1.5v-1.6s0-1.1-.1-1.6c-.1-1-.4-1.8-.9-2.4-.3-.3-.7-.5-1.3-.8-.5-.3-.8-.7-.8-1.1 0-.5.5-.6 1.4-.4.9.2 1.6.4 2.1.5 1.7.5 3 1.2 3.9 2.2.6.6 1 1.2 1.3 1.6.2.4.6 1 1 1.8.2.6.5 1.2.9 1.8.4.6.7 1.2 1 1.8.2.6.5 1.3.8 1.9.3.7.6 1.3.9 1.9.6 1.3 1.2 2.6 1.8 3.8.6 1.2 1.4 2.4 2.3 3.6.7 1.1 1.4 2.2 2.2 3.5.8 1.3 1.5 2.4 2.3 3.4 0-.7-.2-1.8-.6-3.4-.1-1-.2-2.2-.2-3.8 0-1.2 0-2.6-.1-3.9-.1-1.4-.3-2.5-.5-3.5-.2-.6-.4-1.2-.5-1.6-.1-.4-.2-1-.4-1.6-.3-.6-.5-1-.8-1.4-.3-.4-.5-.9-.7-1.4-.6-1-1.3-1.7-1.9-2.2-.4-.2-.9-.5-1.6-.8-.7-.4-1-.7-1-1.2 0-.7.7-.7 2.1 0 1.4.7 2.3 1.2 2.8 1.3.5.1.7.2 1.1.3.5.1 1.5.1 3.2 0 1.7-.1 2.9-.2 3.5-.3 1.6-.2 3-.8 4.1-1.7.2-.2.6-.3 1-.4.5.3.8.6 1 1.2zM36.1 278.2c-.2-2.4-.5-4.6-.8-6.5-.3-1.9-.5-4.3-.9-6.6-.3-1.8-.7-4.1-.9-6.7-.2-2.5-.5-4.7-.9-6.4-.5-2.1-.9-4.3-1.2-6.6-.3-2.3-.6-4.4-1.1-6.3-1-4.5-1.7-8.8-2.1-12.9-.4-3.5-1.1-7.8-2.1-12.5-1-4.8-1.5-9.3-1.4-13.5.1-3.1.1-5.2 0-6.2s-.4-3-1-5.8c-.4-1.5-.9-3.2-1.4-5.1-.5-1.9-1.2-3.5-2-4.7-.9-1.6-1.7-3.1-2.4-4.3-.7-1.2-1.7-2.5-3-3.8-.9-.8-1.6-1.3-2.1-1.5-.5-.3-1.1-.7-1.9-1.4-.8-.7-1.7-1.1-2.5-1.2-.9-.1-1.3-.7-1.3-1.7.9-1.5 2.5-1.4 4.9.4 2.4 1.7 4.4 2.7 5.9 3 5.9.6 8.8.9 14.7 1.5 1 .2 1.8.4 2.3.6.6.3 1.3.3 2.3.1.5.1 1.3 0 2.4-.2 1-.2 1.6-.3 1.8-.3.6.1 1.1.6 1.4 1.3-.5.7-1.2 1.6-2.2 2.8s-1.5 2.4-1.5 3.8c.8 9.4 1.2 14.1 1.9 23.6.1 1.7 0 3.7-.4 5.9s-.6 4.1-.5 5.6c.2 3.4.3 5.2.5 8.6.1.3.2.4.3.7.3.1.4.2.7.3.2 1 .3 2.2.5 3.8.2 1.5.5 2.7.8 3.5.3 1.3.4 2.6.3 3.9-.1 1.3.1 2.7.3 3.9.3 2.4.2 5.3.3 8 .1 2.7.9 4.8 2.3 6.2 1-1.6 1.8-3.4 2.5-5.3.4-1.1.7-2 1-2.9.3-.9.7-1.8 1.3-2.8.5-1.4 1.3-3.2 2.3-5.4 1-2.2 1.8-4.2 2.3-5.8.5-1.9 1.1-4 1.7-6.1.6-2.1 1.2-4.5 1.7-7 0-1.1.2-2.2.4-3.4.3-1.2.5-2.4.7-3.7 0-.9.2-2 .6-3.5.4-1.4 1-2.1 2-1.9.5.1 1 1.3 1.7 3.8.7 2.4 1.2 4 1.7 4.6-.1 3 .2 6 .7 8.9.5 2.9 1 5.8 1.4 8.7.3 1.8.4 3.2.5 4.5.1 1.2.3 2.6.8 4.2.1 1.7.4 3.2.8 4.3.4 1.1.8 2.4 1.3 3.9.4 2.8 1.4 8.7 3 17.8 1.6 9.1 2.9 14.1 3.8 14.9.5-.3 1.7-2.5 3.5-6.6s3.7-8.7 5.7-13.8c2-5.1 3.9-9.9 5.6-14.6 1.7-4.7 2.8-7.8 3.3-9.4 1.2-4.4 2.1-9 2.7-13.6.6-4.7 1.4-9.4 2.5-14.2.5-2.2 1-4.5 1.3-7 .4-2.5.8-4.9 1.3-7.1.2-1.1.5-3.5 1-7.1.5-3.7.7-6.3.8-7.8.1-4.3-.7-6.9-2.3-7.7-.5-.1-1.7-.5-3.5-1.4-1.8-.9-2.7-1.6-2.7-2.2 0-.9 1-1.5 3.1-1.9 2-.4 3.6-.5 4.7-.3.2 0 .3 0 .4.1 1.7.2 3.3.8 4.9 2 1.6 1.1 3 2.1 4.3 2.8 1.9 1.5 5.2 3 9.9 4.4 2.4.9 4.3 1.1 5.5.8 1.2-.4 2.9-.7 5.1-1.1 1.3-.1 2.9-.5 4.8-1.3 1.1-.5 1.8-1 1.9-1.7.1-.7.5-1.5 1.2-2.4.7-.1.6 1-.2 3.4-.8 2.3-1.2 3.7-1.2 4-.3.7-1.1 1.4-2.3 1.8-1.2.5-2.2.8-2.8.8-2.6.9-4.6 1.4-6 1.5-1.4 0-3.2.8-5.5 2.3-1.3 1-2.3 2.8-3 5.5-.7 2.7-1.2 5.2-1.4 7.5-.5 2.6-1.1 5.1-1.7 7.5-.6 2.4-.8 4.9-.7 7.4.5.3.8.4.9.4.2 0 .5-.2 1-.8.5-.5.8-.4.9.4-.1 1.5-1 3.8-2.5 6.7-1.5 3-2.6 5.3-3.1 7-.7 1.8-1.6 4.2-2.7 7.2s-1.8 5.5-2 7.6c-.2 2.3-.6 5.4-1.2 9.3-.6 3.9-1.3 6.4-2.1 7.4s-1.5 1.8-2.2 2.2c-.7.5-1.2 1.6-1.6 3.2-.3 1.5-.6 3-.8 4.5-.2 1.5-.6 2.8-1.1 3.8-.8 2.4-1.7 4.6-2.8 6.7-1 2.1-1.9 4.3-2.8 6.4-.9 2.1-2.1 4.3-3.2 6.6s-2 4.5-2.7 6.7c-.5 1.2-.8 2.6-.9 4-.1 1.5-.4 2.8-.9 3.8-.3.7-.9 1.6-1.6 2.8-.8 1.2-1.3 2.2-1.6 3.1-.7 1.2-1.9 3.1-3.6 5.8-1.8 2.7-3.3 3.9-4.6 3.6-.4-.3-.6-.4-1-.7.1-4.3.1-7.5.1-9.6 0-2.1-.8-4.9-2.2-8.4-.7-1.6-1.3-4.3-1.6-8-.3-3.8-.8-6.8-1.4-9.2-.9-2.6-1.8-5.1-2.6-7.5-.8-2.4-1.7-5-2.4-7.8-1.2-3.3-2.2-5.8-2.8-7.5-.3-.8-.8-2.1-1.6-3.9-.8-1.8-1.1-3-1.1-3.7-1 .4-1.5 1.2-1.6 2.3 0 1.1-.3 1.9-.8 2.4s-1 .8-1.5 1.2c-.5.3-.8.6-.9.8-.4.5-.6 1-.6 1.7 0 .6-.1 1.4-.2 2.4-.8.8-1.8 3.4-3 7.8s-2.4 9.1-3.7 14.1c-1.3 5-2.6 9.6-3.9 13.6-1.3 4-2.5 5.9-3.6 5.7-.3-.1-.7-1.8-1.2-5.1s-.9-5.8-1.2-7.4c-.3-.8-.5-1.8-.7-2.9-.2-1.2-.3-2.3-.4-3.4-1-3.7-1.4-5.9-1.3-7zM145.9 300.9c-.4 0-1.2-.7-2.6-1.9-1.4-1.2-2.2-2.1-2.6-2.5-1.1-1.1-2.9-2.4-5.3-3.7-2.1-1.2-3.9-2.4-5.5-3.6-1.6-1.2-3.1-2.9-4.4-4.9-1.4-2.3-2.4-4.3-3-6-.6-1.7-.9-4.6-.8-8.7.1-2.9.1-5.9 0-9.1 0-3.2.2-6.1.7-9 .2-1.3.3-2.7.3-4.1 0-1.4.3-2.8.8-4.1.5-1.1 1-2.1 1.4-3 .4-.9.9-1.9 1.4-3 1-1.6 2.1-3.3 3.3-5.1 1.2-1.8 2.5-3.2 3.9-4.4.7-.6 1.4-1.2 2.1-2 .8-.8 1.5-1.4 2.3-1.9.8-.7 1.6-1.2 2.4-1.6.8-.4 1.6-1 2.6-1.6 1.8-1.1 3.5-2.2 5-3.2.7-.6 1.5-1.3 2.5-2.1 1-.9 2-1.2 3-1.1 1 .1 2 1.1 3.2 2.9 1.2 1.9 2.1 3.1 2.8 3.7.9 1.3 1.8 2.5 2.7 3.7.9 1.1 1.8 2.3 2.8 3.6 1.4 1.9 3.3 4.3 5.6 7.1s3.5 5.9 3.4 9.2c-.1 4.1-.1 6.1-.2 10.2 0 1.7-.2 3.2-.6 4.5-.4 1.3-.5 2.7-.6 4-.5 2.5-1.2 5.1-2.1 7.7-1.1 3.4-1.9 5.7-2.5 7-.9 1.7-1.4 2.8-1.7 3.4s-.9 1.4-1.9 2.5c-.8.7-1.6 1.4-2.5 2.2-.9.8-1.6 1.4-2.3 2-1 .6-1.8 1.3-2.5 2.1s-1.3 1.6-2 2.3c-.8.9-1.5 1.7-2.1 2.5-.6.8-1.2 1.6-1.9 2.5-.7.7-1.6 1.5-2.6 2.3-.8.9-1.8 1.3-2.5 1.2zm-11.3-59.6c0 1.5-.1 2.9-.1 3.9 0 1.1 0 2.1-.1 3.3-.3 1.2-.4 2.4-.3 3.8.1 1.4.2 2.6.2 3.7 0 2-.1 4.5-.3 7.7-.1 3.2-.1 5.6.3 7.3l.3 3.6c.1 1.2.3 2.3.6 3.5.1 1.8 1 3.3 2.6 4.7.8.7 2 1.9 3.8 3.7l1.9 1.9c.9.9 1.6 1.4 2 1.4.7.1 1.8-.8 3.3-2.8.3-.5 1.1-1.3 2.5-2.3.7-.7 1.4-1.7 2.3-2.9.8-1.3 1.7-2.2 2.5-2.7 1.2-1 1.9-2 2.1-2.9.3-.9.7-2.2 1.4-3.9.5-1.7.8-3.3.9-4.6.1-1.3.2-3.2.2-5.7 0-.6.1-1.4.2-2.6.1-1.2.2-2.1.2-2.9 0-.8 0-1.6-.1-2.5-.1-.9-.1-1.9-.1-3 0-2.6-.1-4.2-.5-5-.4-.8-1-2-1.7-3.6-.8-1.3-1.6-2.4-2.3-3.5-.7-1-1.3-2.2-1.8-3.6-1.4-3.3-4-5.1-7.7-5.5-2.1-.2-3.7.2-4.6 1.3-.9 1.1-1.9 2.1-2.8 2.9-1 .8-2.1 1.9-3.1 3.2-1.2 1.1-1.8 2.6-1.8 4.1z"/><path id="wonderland-n" fill="#FFF" d="M249.6 218c-.5 1.6-1.9 3.5-4.3 5.6-2.4 2.2-4.1 3.7-5 4.4-.7.3-1.6 1.1-2.9 2.2-1.2 1.1-2 2-2.1 2.6-1.2 3.7-1.8 8.3-1.9 13.8 0 2.9 0 5.9.2 9 .2 3 .3 6 .2 9 0 2.9 0 6 .1 9.2.1 3.2.2 6.1.4 8.9 0 1.7.4 4.3 1.2 7.7.2 1.2.5 2.3 1.1 3.4.6 1.1 1.1 2.2 1.5 3.2.3 1.2.5 2.3.7 3.5.2 1.2.5 2.4.9 3.5.2.7.8 1.7 1.8 3.1 1 1.4 1.6 2.3 1.5 2.6 0 2.6-1.4 3.8-4.2 3.7-1.3-.1-2.7-.8-4-2.2-1.4-1.4-2.3-2.8-2.8-4-.8-1.2-1.7-2.5-2.9-3.8-1.2-1.3-2.1-2.6-2.9-3.8-1-1.3-2.1-2.4-3.3-3.5-1.2-1-2.2-2.1-3-3.3-1.1-1.3-2.2-2.5-3.2-3.7-1-1.2-1.9-2.4-2.9-3.7-.7-.6-1.6-1.9-2.9-3.8-1.3-1.9-2.1-3.5-2.5-4.4-.4-.8-1.2-2.3-2.2-4.6s-1.8-3.7-2.2-4.6c-.8-1.1-1.8-2.4-2.8-3.9-1.1-1.5-2-2.8-2.7-3.9-.4 0-1-.6-2-1.6-.9-1-1.4-1.4-1.4-1.2-.4 4-.6 6.2-.6 6.4 0 1.1.1 2.3.2 3.3.2 1.1.3 2.2.4 3.5 0 .9 0 2.2-.1 3.8v3.2c0 2.6-.1 5.1-.2 7.5-.1 2.4.1 4.6.5 6.6.4 4.2 1.9 7.3 4.6 9.5.7.6 1.9 1.7 3.9 3.2 1.9 1.5 2.9 2.8 2.9 3.8 0 .6-.8.8-2.4.7-1.5-.1-2.9-.4-4.1-.9-1.2-.5-2.6-.8-4-.9-1.3-.1-3 0-5 .2-1.6-.1-3.3-.1-5 .1-.7.2-2 .4-3.9.8-2 .4-3.4.5-4.2.2-1.6-.6-1.7-1.4-.1-2.4.5-.5 1.4-1 2.7-1.5 1.3-.5 2.3-1 2.8-1.5s1-1.6 1.5-3.3c.5-1.7.9-3.3 1.1-4.7.2-3.3.7-6.4 1.4-9.4s1.1-6.2 1.1-9.7c0-1.9-.1-3.9-.3-6-.2-2.1-.3-4.2-.3-6.3V258v-6.2c0-1.1-.1-2.3-.2-3.5-.2-1.2-.2-2.4-.2-3.5 0-1.2 0-2.5.1-3.9 0-1.4 0-2.6-.2-3.8-.3-2.4-.9-4.2-1.8-5.4-.7-.5-1.6-.9-2.7-1.3-1.2-.4-1.7-1.1-1.7-2.3 0-1.2 1-1.8 3-1.7 2 0 3.4.1 4.4.2 3.6.3 6.4 1.3 8.3 3.3 1.3 1.2 2.2 2.3 2.6 3.2.5.9 1.2 2.2 2.2 3.8.5 1.4 1.1 2.6 1.9 3.8.8 1.1 1.5 2.4 2.1 3.8.5 1.4 1 2.8 1.7 4.2.6 1.4 1.3 2.7 1.9 4 1.3 2.8 2.6 5.5 3.8 8 1.3 2.5 2.9 4.9 4.8 7.2 1.5 2.1 3 4.5 4.6 7.1 1.6 2.6 3.2 4.9 4.8 6.7 0-1.6-.4-4.1-1.2-7.7-.3-2.2-.4-5.1-.3-8.8 0-2.9 0-6-.2-9.1-.2-3.1-.6-5.8-1.1-8-.5-1.4-.8-2.6-1-3.6-.2-1-.5-2.2-.8-3.6-.5-1.2-1.1-2.2-1.6-3-.6-.8-1.1-1.8-1.5-3-1.3-2-2.7-3.4-4.1-4.3-.8-.3-2-.6-3.4-1.1-1.5-.5-2.2-1.2-2.2-2.2 0-1.7 1.5-2.1 4.4-1 2.9 1 4.9 1.5 5.9 1.6 1 0 1.5.1 2.4.1 1 0 3.2-.5 6.9-1.6s6.1-1.9 7.4-2.5c3.5-1.2 6.4-3.2 8.7-6 .5-.6 1.2-1 2.2-1.4s1.4.1 1.7 1.5z"/><path id="wonderland-d" fill="#FFF" d="M287.4 223.2c3.1.3 6.6 1.5 10.6 3.5 2.1 1.1 3.6 2.1 4.7 2.9 3.2 2.7 5.6 5.2 7.3 7.4 1.6 2.2 3.5 5.4 5.6 9.4.8 1.8 1.3 3.8 1.8 6 .4 2.3.9 4.3 1.6 6.3.5 1.6 1.2 3.5 2.3 5.8 1 2.3 1.5 4.2 1.5 5.6 0 1.5-1.2 4-3.5 7.5s-4 6.2-4.9 8c-.9 1.2-1.7 2.4-2.5 3.7-.8 1.3-1.6 2.5-2.2 3.8-1.5 2.4-3 4-4.4 4.9-1.4.9-3.1 2-5.1 3.2-1.3.6-2.7 1-4.2 1.2-1.5.2-2.7.9-3.7 2.1-.5.6-1 1.2-1.3 1.7-.3.6-.7 1.2-1.2 1.7-1.3 1.4-2.7 2-4.1 1.6-1.4-.4-2.7-.9-4.1-1.6-1.6-.4-3.1-.7-4.4-1-1.3-.3-3-.5-5-.5-2.1 0-4.3-.1-6.6-.1s-4.4.6-6.2 1.9c-.5.6-1.1 1.4-1.8 2.6-.7 1.2-1.4 1.7-1.9 1.7-.3 0-.4-.4-.4-1.2 0-.2.2-.7.6-1.6.4-.9.7-1.5.7-1.9.7-1.1 1.3-1.9 1.9-2.3.9-.6 1.8-.9 2.9-1.1 1.1-.2 2.2-.5 3.4-1.2.5-.1 1.3-.6 2.6-1.5 1.2-.9 2-1.6 2.1-2.2.5-1.6.8-3.3 1-5.2.2-1.9.3-3.7.3-5.4v-8.7-8.6c0-3.6-.5-7.3-1.7-11-.6-2-1-3.8-.9-5.5.2-2.6.4-3.9.6-6.5 0-1.2-.1-2.4-.3-3.6-.2-1.2-.3-2.5-.3-3.8-.2-.6-.7-2-1.7-4.3s-1.7-3.5-2.2-3.7c-.5 0-1.3-.1-2.3-.4-1.1-.2-1.8-.5-2.1-.7-2-.8-3.7-2.9-5.3-6.3-.6-1.4-1.2-2.9-1.7-4.5 0-.4 0-1.4-.1-3.1-.1-1.7.1-2.5.6-2.5s1 .9 1.7 2.6c.6 1.7 1 2.8 1.2 3.4.3.6.5 1.1.7 1.6.2.5.3 1.1.5 1.6.9 2.4 2.4 3.4 4.4 3 1.4-.3 2.9-.5 4.3-.5s2.9-.3 4.6-1.1c3-1.2 5.8-2.1 8.4-2.8 2.3-.3 5.2-.5 8.2-.3zm-6.5 9.4c-.2 3-.2 5.9 0 8.8.1 3 .2 5.9.1 8.8 0 1.9 0 4 .1 6 .1 2.1.1 4 .1 5.7 0 4.2-.2 8.2-.4 12-.2 3.8-.3 8-.1 12.5 0 1.1.1 2.4.3 3.8.2 1.4.4 2.7.6 3.8 2 .4 3.5.6 4.7.6 2.5 0 4.4 0 5.9.1s3.3-1.5 5.5-4.6c.7-1.2 1.5-2.4 2.5-3.6 1-1.2 1.8-2.5 2.5-3.9 1.5-3 2.6-6.1 3.3-9.4.5-1.6 1-3.3 1.6-5.2.6-1.9.9-3.7.9-5.4 0-1.8-.2-4-.6-6.5-.4-2.5-.7-4.5-1-5.9-.5-1.1-1.3-2.5-2.4-4.1-1.1-1.6-2-3-2.7-4.2-1.5-2.3-3.7-4.7-6.6-7.1s-5.6-3.7-8.1-3.7c-3.1.3-5.1.7-6.2 1.5z"/><path fill="#FFF" d="M372.9 236.9c-2.5.9-5 1.4-7.5 1.3-2.5-.1-5 0-7.2.1-.7 0-1.2 0-1.7-.2s-1-.2-1.4-.2c-.5 0-1.2.3-2 .9-.8.5-1.3.8-1.5.8-.5.4-1 1.8-1.5 4.1-1.2 3.8-1.8 6.9-1.8 9.4 0 4.3.9 6.4 2.9 6.3.3 0 1.5-.8 3.7-2.2 2.1-1.5 3.9-2.3 5.2-2.3 3.3-.2 6.1.7 8.3 2.7.7.5 1.6 1.4 2.8 2.6 1.2 1.2 1.8 2.4 1.8 3.5 0 1.8-.3 3.3-.8 4.6-.5 1.3-.9 2.5-1.2 3.8-.9 3.1-2 4.7-3.4 4.8-1.5.1-2.1-.3-1.8-1.3.5-.8 1.2-1.3 2-1.3.8-.1 1.2-1 1.2-2.8 0-3.1-1.8-4.6-5.4-4.3-1 .1-2.2.4-3.4.9-1.7.1-4.1.4-7.4 1-.8 0-1.5.1-2.1.3-.6.1-1.1.2-1.6.2-.5.8-1 1.9-1.6 3.1-.6 1.3-.9 2.4-.9 3.4 0 1.4.1 2.9.5 4.5.3 1.7.5 2.9.5 3.7-.1 1.5-.2 3.9-.2 7.3 0 1 .5 1.6 1.6 1.7 1 .1 1.8.2 2.3.1 1.8-.1 3.7-.5 5.5-1.1 1.9-.6 3.5-1 4.8-1.1 1.5-.2 3.1-.1 4.8.6 1.7.6 3.3.9 4.8.8 2.8-.2 5.5-2.1 8.3-5.6.7-.8.9-2.9.7-6.2-.2-3.3.3-5 1.6-5.1.7-.1 1.2.8 1.5 2.6.3 1.8.5 3 .5 3.6 0 3.5-.4 6.1-1.2 8-.8 1.8-1.8 3.7-3.1 5.5-1.3 1.5-2.4 3.3-3.5 5.5s-2.6 3.4-4.6 3.6c-1.4.1-2.9.1-4.3-.1s-2.8-.2-4.3-.1c-1.7.1-3.3.2-4.7.3-1.5.1-2.9.2-4.4.3-.8.1-1.6.1-2.4.1-.8 0-1.5.1-2.3.1-4 .2-7.8-.1-11.4-1.1-.5-.2-1.3-.5-2.6-.8-1.2-.3-2.1-.6-2.6-.8-.7 0-1.4.1-2.1.3-.8.1-1.5.2-2.1.3-1 0-1.4-.3-1.4-1.1 0-1.6 1.2-2.4 3.4-2.6 2.3-.2 3.7-.9 4.3-2.1 1-3.1 1.5-7.2 1.5-12.1 0-1.6-.2-3.2-.7-4.9-.6-2.7-1-4.6-.9-5.9 0-1.1.3-2.5.7-4.1.5-1.6.8-3.2 1-4.8 0-1.4.1-3 .4-4.9.3-1.9.4-3.6.4-5.1 0-4.9-.1-8.5-.4-10.6-.3-2.3-.5-4.4-.7-6.1-.1-1.8-1.2-2.9-3.2-3.4-1-.3-2-.4-3.1-.3-1.1.1-1.5-.4-1.3-1.6 0-.2.5-.6 1.6-1.2s1.9-.9 2.6-.9c1 0 1.9.2 2.6.7.7.5 1.7.7 3.1.6.5 0 1 0 1.5-.1.5 0 1 0 1.5-.1 1.6-.1 3.4-.4 5.4-1 2-.6 3.8-1.4 5.1-1.8 2.2-.7 4.2-1 5.2-1.4 1.1-.5 2.9-1 5.4-1.5 1.6-.1 3.5-.4 5.6-.9 2.1-.5 3.6-1.4 4.5-2.6.5-1 1.3-2.5 2.6-4.4 1.2-1.9 2.5-2.9 3.8-3 .8-.1 1.2.2 1.2.8 0 .2-.2 1.1-.6 2.7-.4 1.6-.6 2.5-.6 2.6-1.2 2.8-1.8 4.6-2 5.1-.4.8-.7 1.7-.9 2.8-.2 1.1-.5 1.9-.6 2.5-.8 2.3-1.5 3.8-2.3 4.6zM400.8 249.8c0-2.1-.1-4.3-.5-6.5-.3-2.2-.5-4.5-.5-6.8-.2-3-.7-5.3-1.7-6.7-1-1.5-2.9-2.1-5.9-1.9-1-.5-1.4-1.1-1.4-1.9 0-.8.9-1.2 2.7-1.4 1.4-.3 3-.8 4.6-1.4 1.6-.6 3.3-1.1 4.9-1.4 2.4-.4 4.9-.8 7.3-1.2 2.4-.4 4.9-.9 7.3-1.6 1.1-.1 2.3-.2 3.4-.2s2.4-.1 3.9-.2c1.8-.4 4.1-.5 7.1-.4 2.4.9 4.3 1.5 5.4 1.9 1 .4 1.9.8 2.7 1.2 1.3.2 2.1.9 2.2 2 0 1.1-.2 2-.6 2.7-.4.7-.7 1.5-.8 2.2-1 4.3-1.6 7.6-1.8 9.9 0 1.7-.2 3.3-.5 4.9-.5 1.8-2.1 4.2-4.9 7.2-2.8 3-4.9 4.9-6.4 5.7.4 1.6.7 3.2 1 4.7.3 1.5.7 3 1.2 4.5.9 3.5 2.6 6.7 4.9 9.6.9 1.6 1.8 3.1 2.4 4.5.3 1.1 1 3 2 5.6 1.1 2.6 1.9 4 2.6 4.3 1 .6 1.6 1 1.8 1.2.2.2 1.1.8 1.9 1.7.8 1 2.4 1.6 4.8 1.3.8-.1 1.5-.7 2.1-1.6.6-.9 1.3-1.5 2.1-1.9.8-.1 1.3.6 1.7 2 0 .3-.8 1.2-2.4 2.7-.4.4-.8 1-1.3 1.7s-.8 1.1-1 1.1c-1 .7-2.2 1.3-3.7 1.7-1.3.2-2.5.6-3.7 1.1-1.1.6-2.3.8-3.4.8-.4.1-1.2-.1-2.5-.5s-2.1-.6-2.5-.8c-1.4-.4-2.7-1.4-3.9-3.1-.5-.7-.9-1.5-1.2-2.4-.3-.9-.7-1.8-1.2-2.7-.8-1.8-1.6-3.6-2.4-5.5-2-3.2-3.3-7-3.9-11.5-.3-1.7-.6-3.5-.8-5.4l-.6-5.7c0-1.9-.6-2.7-1.7-2.4-.8.1-2.3.4-4.3 1.1-2 .6-3.2 1.2-3.6 1.9.2 3.4.2 6.6 0 9.5-.3 5-.3 8.8-.2 11.2.2 4.1 2.5 5.7 7.1 4.3 1.3-.2 2.2.6 2.7 2.3 0 .8-.6 1.2-1.7 1.4-1 .3-1.9.5-2.6.5-.7 0-1.6 0-2.6.2-3.6.4-6.3.7-7.8 1.2-1.3.4-2.6 1.2-4 2-1.3.8-2.6 1.5-3.7 2-4.6 1.8-8.3 2.9-11.3 3.3-2.6.7-4-.1-3.9-2.2 0-.6.4-.9 1.2-1.1.8-.2 1.4-.4 1.8-.6.8-.1 2-.6 3.7-1.5.5-.2 1.3-.8 2.4-1.9 1.1-1.1 1.9-2.1 2.3-2.9.5-1.2.9-2.3 1.2-3.4.3-1.1.7-2.2 1.2-3.4.3-.8.6-2.1 1-3.7.3-1.7.6-3.1.8-4.3 0-1.2.2-2.6.5-4.1.3-1.5.6-2.9.8-4.1 0-1.1 0-2.6.1-4.5.1-1.8.1-3.3.1-4.5v-9.8zm19.2-24.3c-1.8.4-2.6.6-4.4 1-.5 1.8-.9 3-1.2 3.5-.2.5-.6 1.3-1.1 2.2-.4.6-.8 1.6-1.3 3.1s-.6 2.5-.5 3.2c.4 3 .6 4.6 1 7.6v4.9c0 1.1-.1 1.9-.3 2.5-.2.5-.2 1.2 0 2.1 1 .7 1.8.7 2.7 0 .8-.7 1.7-1.1 2.7-1.4 1.8-.2 3.2-1.3 4.2-3.4 1-2.1 1.7-4.1 2.2-6.1.2-1.2.4-2.6.6-4.2.2-1.6.6-3 1.1-4.4 0-.6.5-1.8 1.6-3.8 1.1-2 1.6-3.1 1.6-3.3 0-.4-.5-1-1.5-1.9-1-.8-1.7-1.3-2-1.5-1.7-.5-3.5-.5-5.4-.1zM496.4 180.1c-2.9.1-5 .2-6.4.5-1.4.3-2.7 1.8-3.8 4.5-1.8 4.1-2.8 9.2-3.4 15-.4 3.9-.6 6.8-.2 8.5.3 1.7.6 4 .7 6.8.1 3.3-.2 5.9-.5 7.6-.3 1.7-.6 4.3-1 7.7-.4 3.6-.6 6.9-.5 9.9.1 3 .2 6.2 0 9.5s-.2 6.5-.1 9.5.1 5.8.1 8.6c-.2 2.8-.7 9.5-1.4 20-.8 10.5-.3 15.7 1.4 15.6.9 0 2.2-.6 3.9-1.8 1.6-1.2 3.8-1.9 6.5-2.2 1.6-.1 2.3-.1 3.9-.2 3.1-.1 7 .5 11.6 1.8 4.7 1.3 8.5 2.1 11.3 2.5 3.2.9 6.8 1.9 10.8 3.1 3.9 1.1 7.8 1.4 11.7.9 3.9-.5 7.9-1.8 12.1-3.8 4.2-2 6.5-5.1 7-9.1 0-1.6-.3-2.6-1-2.8-.6-.2-1-1.2-1-2.8 0-.9.5-1.1 1.4-.7 1.6.3 2.6 1.4 2.9 3.5.3 2.1.4 4.1.2 6.3-.6 2.5-1.5 4.5-2.4 6-1 1.5-1.5 2.5-1.7 3.1-1.6 3.1-3.6 5.6-6 7.4-.9.6-3.6 2.1-7.9 4.5-4.3 2.4-7.5 3.5-9.4 3.4-2 0-4.5-.3-7-1.1-2.6-.8-4.3-1.3-5.1-1.5-2.9-.9-7-1.7-12.4-2.5s-9.7-1.4-12.7-1.9c-2.3-.5-4.5-.7-6.7-.8-2.2-.1-4.7-.1-7.4-.1-4.9.4-9.3 1.8-13.2 4.2-.8.3-2.9 1.4-6.3 3-3.4 1.7-5 1.6-4.7-.2 0-.3.4-.9 1.1-1.7.7-.8 1.3-2.3 1.6-4.7.4-3.4.3-6.7-.2-9.7-.5-3-.6-6.5-.2-10.5.2-1.8.3-3.5.3-5.3 0-1.8.2-3.9.5-6.2.7-5 1.1-8.8 1.4-11.5.3-2.9.5-5.3.3-7.4-.2-2-.1-4.5.3-7.4.2-1.9.4-4.2.6-7 .2-2.8.4-5.1.4-7-.4-3.5-.4-8.1 0-13.7.3-5.6.7-10.4 1.2-14.4 1-9.7.9-18.4-.4-26.2-.5-2.6-1.1-4.2-1.8-4.8-.7-.7-2.5-1.1-5.2-1.4-1.5 0-3.2-.5-5.3-1.3-2-.8-3-2.1-3-3.8.3-1.1.9-1.4 1.4-1.3.9.2 2.2.4 3.2 1s2.2.8 3.7.9c1.4 0 3.2-.1 5.2-.4s3.9-.6 5.5-.8c.9-.1 1.8-.1 2.5 0s1.6 0 2.5-.3c1.8-.6 4.3-1.2 7.6-1.8 3.3-.6 5.9-.7 7.6-.4.8.4 1.5.8 2 1 .5.2 1.2.3 2.2.4.9.4 1.7.6 2.4.5.7-.1 1.2.2 1.7.9 1.5 1.9.7 2.6-2.4 2.4z"/><path fill="#FFF" d="M544.3 221c-1.1 5.3-1.6 7.9-2.7 13.2-.5 2.1-.5 5.2 0 9.2.5 4 .8 6.8 1 8.4.5 3.5 1.1 5.9 1.9 7.4.6 1.3 1.4 2.1 2.1 2.5.5.2 1.1.3 1.9.3.8 0 1.2.4 1.2 1.1-.4 1.9-1.7 2.8-4.1 2.9h-1.1c-2.6.4-4.7-.4-6.3-2.6-1-.6-1.7-1.6-2-2.9-.3-1.3-.8-2.2-1.5-2.8-2.9 5.5-5.7 11-8.3 16.7-2.7 5.7-7.4 8.8-14.2 9.1-.3-.1-.4-.1-.7-.2-2.1.2-4.2-.1-6.4-1.1s-3.8-2.1-4.7-3.2c-2.6-2.1-3.7-6.5-3.2-13 .4-3.8.8-6.6 1.3-8.3s1.7-3.9 3.6-6.5c2.3-3.2 5.6-6 9.9-8.4 2.2-1.2 4-2.3 5.4-3.4 1.4-1.1 3.1-2.4 5.2-3.9 1.6-1.2 3.2-2.6 4.7-4.2s2.7-3.7 3.5-6.4c1.3-3.7 1.7-6 1.2-7-.9-.9-2.5-2-4.8-3.2-1.8-.6-3.7-1.3-5.7-2.2-2-.8-4.2-1.2-6.4-1.2-.2-.1-.3-.1-.4-.2-3.1.2-5.8 2-7.8 5.5-2.1 3.7-2.5 5.9-1.3 6.3 1.2.3 1.7 1.4 1.5 3.1-.2 1-1 2-2.4 2.9-1.1-.5-2.2-1.1-3.1-1.7-1-.6-1.3-2-1-4.3.2-2.1 1.2-4.3 2.9-6.9 1.8-2.5 3.3-4.3 4.6-5.4 2-1.5 3.5-2.9 4.7-4.4 1.2-1.5 3.5-2.2 6.9-2.3.4-.1.6-.1 1-.2 2.2.2 4.7.9 7.5 2.1 2.7 1.2 5.1 2.2 7 2.9.9.6 2.3.9 4.2.9 1.9.1 3 .4 3.5 1 1.3 2.3 1.7 5.2 1.2 8.6.2 1 .2 1.2.2 1.8zm-12.6 25.4c.3-3.4-.5-5-2.4-5-.3.1-.5.1-.8.2-2.7.2-4.7 2.5-5.9 7.2-1.2 4.6-2.3 7-3.2 7-.1 0-.2 0-.3.1-.8.2-1.3-.3-1.5-1.5-.1-1.2-.5-1.8-.9-1.8-.2 0-.3.1-.5.1-4.4.3-6.8 2.7-7.3 7.5 0 .3 0 .7.1 1 .1.4.1.6.1.8.9 1.6 1.5 2.6 1.8 2.9.3.3 1.1 1 2.5 2 1.1.8 1.9 1.5 2.4 2 .5.2.9.6 1.2 1.1.2.5.6.8 1.1.8 2.2-4.1 4.5-7.7 6.7-10.9 1-1.3 2.3-3.2 3.8-5.5s2.4-4.4 2.7-6.3c.3-.7.3-1.1.4-1.7zM623.4 177.6c-.5 1.5-1.9 3.5-4.2 6-2.3 2.5-3.9 4.2-4.8 5.2-.6.5-1.6 1.4-2.8 2.7-1.2 1.3-1.9 2.3-2.1 2.8-1.1 3.5-1.7 7.7-1.7 12.5 0 2.6.1 5.1.3 7.7.2 2.6.3 5.1.3 7.7 0 2.6.1 5.2.2 7.9s.3 5.2.5 7.5c0 1.5.4 3.6 1.2 6.3.2.9.5 1.8 1.1 2.6.5.8 1.1 1.5 1.5 2.2.3.9.5 1.8.7 2.8.2 1 .5 1.9.9 2.7.2.5.8 1.2 1.8 2 1 .9 1.5 1.4 1.5 1.7 0 2.2-1.3 3.8-4 4.6-1.3.4-2.6.2-3.9-.5-1.3-.8-2.3-1.6-2.8-2.5-.8-.8-1.7-1.5-2.8-2.3s-2.1-1.6-2.8-2.3c-1-.8-2.1-1.4-3.3-1.9-1.2-.5-2.2-1.2-2.9-1.9-1.1-.8-2.1-1.5-3.1-2.3-1-.7-1.9-1.5-2.8-2.3-.6-.3-1.6-1.1-2.9-2.5-1.3-1.3-2.1-2.5-2.4-3.1-.3-.6-1.2-1.7-2.2-3.3-1-1.7-1.8-2.8-2.2-3.4-.8-.7-1.8-1.6-2.8-2.6-1.1-1.1-2-1.9-2.7-2.7-.4.1-1-.2-1.9-.8-.9-.6-1.4-.9-1.4-.7-.4 3.8-.5 5.7-.5 5.9 0 1 .1 2 .3 2.9.2.9.3 1.9.4 3v6.3c0 2.3 0 4.6-.1 6.8s.1 4.1.6 5.7c.5 3.6 2 5.9 4.5 7 .6.3 1.9.9 3.8 1.5 1.9.7 2.8 1.5 2.8 2.4 0 .5-.8 1-2.4 1.4-1.5.4-2.8.6-4 .6-1.2 0-2.5.2-3.9.5-1.3.4-2.9 1-4.8 1.9-1.6.4-3.2 1-4.8 1.8-.6.4-1.9 1.1-3.8 2.1s-3.3 1.6-4.1 1.7c-1.6 0-1.6-.7-.2-2.1.5-.6 1.3-1.4 2.6-2.3 1.3-.9 2.2-1.6 2.7-2.3.5-.6.9-1.8 1.4-3.5.5-1.7.8-3.2 1-4.6.2-3 .6-6 1.2-8.9.6-2.9 1-6 1-9.1 0-1.7-.1-3.5-.4-5.3-.3-1.8-.4-3.6-.4-5.6 0-1.6 0-3.3-.1-5.1-.1-1.8-.1-3.6-.1-5.6 0-1-.1-2.1-.3-3.1-.2-1-.3-2.1-.3-3.1v-3.5c0-1.2-.1-2.3-.3-3.3-.3-2.1-.9-3.5-1.8-4.4-.6-.3-1.5-.4-2.7-.4-1.1 0-1.7-.6-1.7-1.6 0-1.1 1-1.9 2.9-2.4s3.4-.8 4.3-1c3.5-.7 6.2-.5 8.2.7 1.3.7 2.2 1.5 2.6 2.2.5.7 1.2 1.6 2.2 2.8.5 1.1 1.1 2.1 1.9 2.8.8.8 1.5 1.7 2.1 2.8.5 1.1 1 2.2 1.7 3.2.6 1.1 1.3 2.1 1.9 3 1.3 2.1 2.6 4.1 3.8 5.9 1.3 1.8 2.8 3.5 4.7 4.9 1.5 1.4 3 3 4.6 4.8 1.6 1.8 3.2 3.2 4.7 4.3 0-1.4-.4-3.5-1.2-6.3-.3-1.8-.4-4.3-.4-7.6 0-2.6-.1-5.2-.3-7.9-.2-2.7-.6-4.9-1.1-6.6-.5-1.1-.8-2-1-2.8-.2-.8-.5-1.8-.8-3-.5-.9-1.1-1.6-1.6-2.2-.6-.6-1.1-1.3-1.5-2.2-1.3-1.4-2.6-2.3-4-2.7h-3.4c-1.4 0-2.1-.5-2.1-1.4 0-1.5 1.4-2.2 4.3-2.1 2.9.1 4.8 0 5.8-.2.9-.2 1.4-.3 2.4-.6.9-.2 3.1-1.3 6.6-3.2 3.5-1.9 5.9-3.3 7.2-4.1 3.4-2 6.2-4.5 8.4-7.4.5-.6 1.2-1.2 2.1-1.8 1-.7 1.7-.5 1.9.6zM659.9 171.9c2.9-.6 6.4-.6 10.1 0 2 .3 3.5.7 4.5 1 3.1 1.3 5.4 2.6 6.9 3.9 1.6 1.3 3.3 3.3 5.4 5.9.7 1.2 1.3 2.6 1.7 4.3.4 1.7.9 3.2 1.5 4.5.4 1.1 1.2 2.4 2.1 3.9 1 1.5 1.5 2.8 1.4 3.9 0 1.2-1.1 3.5-3.3 7.1-2.2 3.5-3.7 6.2-4.7 8-.8 1.2-1.6 2.5-2.4 3.8-.8 1.3-1.5 2.6-2.1 3.8-1.4 2.4-2.8 4.3-4.1 5.4-1.3 1.2-2.9 2.6-4.8 4.3-1.3.9-2.6 1.7-4 2.4s-2.6 1.7-3.5 3c-.5.7-.9 1.3-1.3 1.9-.3.6-.7 1.2-1.2 1.8-1.3 1.6-2.6 2.5-3.9 2.7-1.3.2-2.6.2-3.9.1-1.5.3-2.9.5-4.2.7-1.3.2-2.8.6-4.7 1.3-2 .7-4.1 1.4-6.3 2.2-2.2.8-4.2 2-5.9 3.7-.5.6-1 1.6-1.7 2.8-.7 1.2-1.3 1.9-1.8 2.1-.3.1-.4-.2-.4-.9 0-.2.2-.7.6-1.6.4-.9.6-1.5.6-1.9.6-1.2 1.2-2.1 1.8-2.6.8-.8 1.7-1.4 2.8-1.9 1-.5 2.1-1.2 3.2-2.1.5-.3 1.3-1 2.5-2.2 1.2-1.2 1.9-2 2-2.5.5-1.5.8-3 .9-4.6.1-1.6.2-3.1.2-4.6 0-2.5 0-4.9-.1-7.3 0-2.4-.1-4.8-.1-7.2 0-3-.5-5.9-1.7-8.7-.6-1.4-.9-2.9-.9-4.3.2-2.2.3-3.4.5-5.6 0-1-.1-2-.3-2.9-.2-.9-.3-2-.3-3.1-.2-.4-.7-1.5-1.7-3.1-.9-1.6-1.6-2.5-2.1-2.5-.5.1-1.2.2-2.3.3-1 .1-1.7.1-2 0-1.9-.2-3.6-1.4-5.2-3.8-.6-1-1.2-2.1-1.6-3.3 0-.3 0-1.2-.1-2.6-.1-1.4.1-2.2.6-2.3.5-.1 1 .5 1.6 1.7.6 1.3 1 2.1 1.2 2.6.3.4.5.8.7 1.2.2.4.3.8.5 1.2.9 1.8 2.3 2.2 4.2 1.3 1.4-.7 2.8-1.2 4.1-1.6 1.4-.4 2.8-1.1 4.4-2.2 2.8-1.8 5.5-3.3 8.1-4.6 2.8-1.2 5.6-2.2 8.5-2.8zm-6.2 9.5c-.1 2.5-.1 4.9 0 7.3.1 2.4.2 4.8.2 7.3 0 1.6 0 3.3.1 5 .1 1.7.1 3.3.1 4.7 0 3.5-.1 6.8-.3 10-.2 3.2-.2 6.7-.1 10.4 0 1 .1 2 .3 3.1.2 1.1.4 2.1.6 3 1.9-.3 3.4-.6 4.5-1 2.3-.8 4.2-1.5 5.6-1.9 1.4-.4 3.1-2.3 5.2-5.6.6-1.2 1.4-2.5 2.3-3.8.9-1.3 1.7-2.6 2.3-3.9 1.4-2.9 2.5-5.8 3.1-8.7.5-1.4 1-3 1.5-4.7.6-1.7.8-3.2.8-4.6 0-1.4-.2-3.1-.6-5-.4-1.9-.7-3.4-1-4.4-.4-.8-1.2-1.6-2.3-2.6-1.1-.9-1.9-1.8-2.5-2.6-1.4-1.4-3.5-2.7-6.3-3.9-2.8-1.2-5.4-1.4-7.7-.7-2.8.8-4.8 1.7-5.8 2.6z"/></svg>